<svg xmlns="http://www.w3.org/2000/svg" fill="none" viewBox="0 0 260 258" height="258" width="260">
<path fill="#2797CF" d="M0.998535 56.0003C0.998535 25.0723 26.0706 0.000244141 56.9986 0.000244141L202.998 0.000244141C233.926 0.000244141 258.999 25.0724 258.999 56.0004V115.563V202C258.999 232.928 233.926 258 202.998 258H56.9986C26.0706 258 0.998535 232.928 0.998535 202V56.0003Z"></path>
<path fill-opacity="0.4" fill="#FFFFFE" d="M127.471 181.343C270.208 95.3553 116.236 188.316 258.972 102.328V206.795L236.782 248.223L127.471 181.343Z"></path>
<path fill-opacity="0.4" fill="#FFFFFE" d="M0.996129 200.074L0.996094 101.223L230.844 241.159L212.895 252.779L21.7515 241.532L0.996129 200.074Z"></path>
<path fill="black" d="M0.999312 73.8719L0.999268 59.6274L129.998 138.975L259.009 59.7997V74.045L129.999 153.22L0.999312 73.8719Z" clip-rule="evenodd" fill-rule="evenodd" opacity="0.1"></path>
<path fill-opacity="0.4" fill="#FFFFFE" d="M130.373 138.294L0.998532 59.6301L0.998532 56.4374C0.998532 25.268 26.3557 0.000243032 57.6353 0.000241665L202.362 0.000235339C233.932 0.000249218 259.408 25.7217 258.994 57.178L258.961 59.6301L130.373 138.294Z"></path>
<path fill="#B1DAEE" d="M1.63426 50.9807L129.998 129.693L258.439 51.0542L258.837 56.4829V60.7675L129.998 139.647L1.1604 60.7675V55.9836L1.63426 50.9807Z"></path>
<path fill="#B1DAEE" d="M129.998 179.208L1.1604 100.329V110.282L215.945 241.839L221.795 240.127L226.278 238.223L138.07 184.219L258.837 110.282V100.329L129.998 179.208Z"></path>
<path fill="#2797CF" d="M0.999878 184.501V202C0.999878 232.928 26.0719 258 56.9999 258H203C233.928 258 259 232.928 259 202V184.501C259 215.429 233.928 240.501 203 240.501H56.9999C26.0719 240.501 0.999878 215.429 0.999878 184.501Z" clip-rule="evenodd" fill-rule="evenodd"></path>
<path fill-opacity="0.3" fill="white" d="M56.9989 0C26.071 0 0.998901 25.0721 0.998901 56V57.4759C4.02333 29.4014 27.796 7.54272 56.6741 7.54272H202.999C233.927 7.54272 258.999 32.6148 258.999 63.5427V56C258.999 25.0721 233.927 0 202.999 0H56.9989Z" clip-rule="evenodd" fill-rule="evenodd"></path>
</svg>
